<svg xmlns="http://www.w3.org/2000/svg" width="156.1" height="150.2">
  <path fill="#087EC1" d="M71 63.3c1.2-.1 2.3-1.8 2.8-2.5.6-.8-.4-.8-.7-1-.3-.1-.5-.1-1 .2-.6.4-1 1.1-1.5 1.6-.4.4-.1.4-.1 1 0 .5.5.7.5.7zm30.5 69.1l-2.6-5.5c-1.4-2.8 0-2.8 2.1-4.6 2-1.9 4-1 7-1.7s2-3.2 2.7-6.4c.7-3.3-1.8-6-2.3-7-.4-1 0-3.2-.9-7-1-3.7-4.6-14.5-5.6-15.2-.9-.7 16.3-3.1 16.3-3.1 6-1.4 5.2 24.4 5.2 24.4L143 94.6V56.3l-19-11.4s-.3 21.3-3 24.2-6.8 3.5-6.8 3.5l-23.4 3c-1.5-2.1-9.8-6-9.8-6-.1-5.1 2.5-7 5.7-8.9 3.2-1.8 2.6-4.5 1.7-5.3-1-.7-1-1.8-1-1.8-.2-6.9-4-17.9-16.8-17.8-11.6 0-15.1 2.2-17.8 7-2.7 4.8-4.1 6.3-6.5 7.8-2.4 1.5-2.3 2.6-3.3 5.1-1 2.6 4.2 4.9 4.6 5.8.5.9-1.3 3.6-1.3 3.6l3.6 1.5 2.5 8.2L41 76.5l-8.4 7-8.5.7v14.9s11-1.9 11.7-1.9c1.1 0 4 1.6 5.5 2.1 1.7.5 4.9.2 7.4 1 2.6.6 2.6 6.7 2.6 6.7a80.3 80.3 0 0 1-8.5 19l2.2 1.8c8.6 6.8 27 29.6 56.6 4.6zm-72.3-41c-1.8.2.3.8-.4.6-.7-.3-.8-2.4-.8-2.4s-.4-1 .7-1.6c1.6-.1-1.3.4 1 0 2.3-.6 2.6-.2 2.3.5-.4.6-1.2.7-.3 1 .9.4-.8 1.6-2.5 1.8zm55-16.6c1 .5 2 1 1.3 1.2l-17.9 1.8s-1.2-.5 0-1c1.3-.6 6.1-3.3 7.6-2.9 1.5.4 3 1 4 1 1-.1 4-.6 5-.1zM72.1 47.2c.8-1.8 2.3-5.6 2.7-6 .3-.5 2 0 3.3.6 1.4.6 2.8.8 2.6 3-.3 2.2-1.5 6.2-2.9 5.6a18 18 0 0 0-4.4-1.5s-2-.3-1.3-1.7zm-18.8 1c.6-1.4 2.9-5.6 3.3-6 .4-.3 2.7-1.3 7-1.7 4.4-.5 6.7-.2 6.8 0 0 .2.3 0-1 2.7-1.3 2.8-1.6 4.7-2.7 4.6-1 0-3.7-.5-12.4 1.1 0 0-1.6.6-1-.7zM49 58.6s-4.7-2.8-.4-5.2a31.6 31.6 0 0 1 23.7-2.3c10.9 3 14 5.7 12.4 7.2-1.6 1.5-2.2-1.3-7.7-3.7a35.6 35.6 0 0 0-20.4-2.5c-6.7 1.7-7.6 3-7.2 4 .5 1 .8 2.6-.4 2.5zm2.9 4.7s-.9-.9.2-1.6c1.1-.8 4.6-2.9 5-3.4.5-.5-.3-1-1.2-1.4-1-.4-3.2-1.4-1-2 2.1-.5 8-1.8 10.3-.4 2.1 1.4.8 2.5-.5 4.5-1.3 2.1-2.4 2.6 0 2.6 2.3 0 2.4.5 3.8-1.5s4.5-3.3 6.5-1.8c1.9 1.3 1.7 3.6.7 4.5 0 0-1.8 1-1.7 2.5l.1 4.4c0 .8.2 1.5-2 1.4-2.1-.1-9.8 2-12.9 3.3-2.3.8-1.8.3-3.5-3.3-1.8-3.6-3.3-6.9-3.9-7.8zm2.5 51.4c-1.4 5-4.3 14.1-5.4 15.1-1.2 1-2-1.4-2-1.4.7-.7 3.5-8.8 5-12.8 1.6-4 2.1-7.6 3.2-7.6 1 0 .6 1.8-.8 6.7zM81 137.4c-2 .1-9.2.6-17.3-1.6-8-2.2-7.3-1.7-6.9-4.5l2.3-14.5s.2-4.4 1.8-2.7a29 29 0 0 0 12.2 7c6.8 2.3 6.3 1.2 6.5 3.6a67 67 0 0 0 2 9.3c.8 2.6 1.5 3.3-.6 3.4zm13-2.3s-2.5-6.8-2.5-8.8c0-2 2.4-1.3 2.6-.3l2 8c0 .5-.7 1.5-2.2 1.1zm8.7-25.8c.3 2.4 2 9-4.7 7-6.8-2.2-14.3-4-18.4-5.6-4-1.6-8.7-1.8 1.7 4 10.4 5.9 11.2 3.3 10.4 5.9-.9 2.6-6.7-.5-11.7-2.1s-16-3.9-22.2-15.2c-3.7-6.7-6-11.8-7.7-14-1.2-1.5-2.7-1.2-2.3.2.5 1.6 2.5 3.5-.4 3.7 0 0-11.5-2.4-12.3-5.5-.8-3.1 8.6-11 13-9.3 4.3 1.8 4.8 2.6 6.4 1.8 1.6-.8 4.7-.6 4.2 1.5s-3.2 5.3-2.6 6.8c.7 1.5 5 3.2 9.3 6.3 4.2 3.1 4.4 3.4 4.2 6.2-.2 2.7 5.8 2 9.7 2.3 4 .3 23 3.5 23.4 6zM91.2 95.9c2.3-3 4.8-6.6 5.6-6.4 0 0 2.6 5.6 1.4 14 0 0-17.6-3.5-20.3-3.5-2.6 0-4 0-2.2-3.6 1.9-3.6 4.6-8.7 6.6-9 2-.4 7.4-1.3 8.4-1.3 1.3-.1 1 .3-.5 3.1-2 3.5-1.4 9.7 1 6.7zm-16-5.9c-.7 1-3 4.9-3.7 4.8-.7 0-3-2-5.2-3.1-1.9-1-2.8-1.1-1.5-1.5 0 0 9.9-1.8 10.5-1.8.7 0 .5.6-.2 1.6zM114 78.1c-2 .2-47.8 6.3-50.4 6.8-2.6.6-.5-2.5-.5-2.5s.6-1.2 1.8-1.3c2.2-.3 49-5.7 50-5.7s1.3.3 1.4 1.3c0 1-.2 1.3-2.3 1.4zm12.2-26.9L137 57v35.6l-9.8 5.4v-4.8l4.4-2.7.1-31.1-5.5-3v-5.2zM113 78.8s.6 0 .3-1.3c-.2-1.2-3.8-2.2-2.4-2.4a74 74 0 0 1 12.8-.7c.5.6 1.3 2.9.2 3.6-1 .7-11 .8-11 .8z"/>
  <path fill="#F7E93E" d="M33.4 93c-1.1-1.2-1.7-3.8-1.4-4.4.3-.6 0-1-2.3-.5s1.4-.1-.2 0c-1.6.2-1.1 1.1-1.1 1.1s-.2 5.1.5 5.4c.7.2.4-.2 2.1-.5 1.8-.2 3.3-.7 2.4-1.1zm89.2-17c0-1-.4-1.3-1.4-1.3s-55 6.2-57.1 6.5c-1.3.1-1.9 1.3-1.9 1.3s-2 3 .6 2.5 55.5-7.4 57.6-7.6c2-.2 2.3-.4 2.2-1.4zM72.5 49c2 .4 3 .8 4.5 1.5 1.4.7 2.6-3.4 2.8-5.6.2-2.1-1.1-2.4-2.5-3-1.4-.7-3-1-3.4-.6l-2.7 6c-.7 1.4 1.3 1.7 1.3 1.7zm-19 0c8.6-1.6 11.3-1.1 12.4-1 1 0 1.3-2 2.7-4.7 1.3-2.8 1-2.5 1-2.7-.2-.2-2.4-.5-6.8 0-4.3.5-6.7 1.4-7 1.8-.5.3-2.8 4.6-3.3 5.9-.6 1.3 1 .7 1 .7zm30.4 9.4c1.6-1.4-1.6-4.1-12.4-7.1-11-3-19.4-.1-23.8 2.3-4.3 2.3.4 5.1.4 5.1 1.3 0 1-1.5.5-2.5s.4-2.3 7.2-4c6.7-1.6 15 .3 20.4 2.6 5.5 2.3 6 5 7.7 3.6zM54.9 107.9c-1.1 0-1.6 3.6-3.2 7.6-1.6 4-4.4 12-5 12.8 0 0 .8 2.4 2 1.4a79 79 0 0 0 5.4-15c1.4-5 1.8-6.8.8-6.8zm24.4 16.7c-.3-2.4.2-1.3-6.6-3.5a29 29 0 0 1-12.1-7.1c-1.7-1.7-1.9 2.7-1.9 2.7l-2.2 14.5c-.4 2.8-1.2 2.3 6.9 4.5 8 2.2 15.2 1.7 17.3 1.6 2-.2 1.4-.8.6-3.4-.8-2.6-1.7-6.9-2-9.3zm11.9 1.6c0 2 2.4 8.8 2.4 8.8 1.4.4 2.2-.7 2-1.2 0-.5-1.6-7-1.8-8-.3-.9-2.6-1.6-2.6.4zm-20-31.5c.7 0 3-3.8 3.6-4.8.6-1 .9-1.6.2-1.6S64.4 90 64.4 90c-1.2.4-.3.6 1.6 1.5 2.2 1 4.4 3 5.2 3.2zm-3.9-17s17-1.7 17.9-1.9c.8 0-.4-.7-1.3-1.2-1-.5-4 0-5 .1-1 0-2.5-.6-4-1-1.5-.3-6.4 2.4-7.6 3-1.2.5 0 1 0 1zm29.2 11.7c-.8-.2-3.3 3.4-5.7 6.4-2.3 3-3-3.2-1-6.7 1.6-2.8 1.8-3.2.5-3.1-1 0-6.3.9-8.3 1.2-2 .4-4.8 5.5-6.6 9.1-1.9 3.7-.5 3.6 2.2 3.6 2.6 0 20.2 3.5 20.2 3.5 1.2-8.4-1.3-14-1.3-14z"/>
  <path fill="#087EC1" d="M13.2 38v12.8L78 13.3V.1z"/>
  <path fill="#53B748" d="M142.9 38v12.8L78 13.3V.1z"/>
  <path fill="#087EC1" d="M142.9 112.2v-11.7L78.2 138v12.1z"/>
  <path fill="#53B748" d="M13.2 112.2v-11.7l65 37.5v12.1z"/>
  <path fill="#087EC1" d="M22.1 99.2l-8.9-4.8V57.5l8.9-4.8zM110.5 73L124 44.9l1.3 24.4-9.5 4.5zM111.3 80.6l12.1 25.7 1.9-4.2-2.5-21.5z"/>
</svg>
