<svg xmlns="http://www.w3.org/2000/svg" width="522.9" height="150.2">
  <path fill="#087EC1" d="M71 63.3c1.2-.1 2.3-1.8 2.8-2.5.6-.8-.4-.8-.7-1-.3-.1-.5-.1-1 .2-.6.4-1 1.1-1.5 1.6-.4.4-.1.4-.1 1 0 .5.5.7.5.7zm30.5 69.1l-2.6-5.5c-1.4-2.8 0-2.8 2.1-4.6 2-1.9 4-1 7-1.7s2-3.2 2.7-6.4c.7-3.3-1.8-6-2.3-7-.4-1 0-3.2-.9-7-1-3.7-4.6-14.5-5.6-15.2-.9-.7 16.3-3.1 16.3-3.1 6-1.4 5.2 24.4 5.2 24.4L143 94.6V56.3l-19-11.4s-.3 21.3-3 24.2-6.8 3.5-6.8 3.5l-23.4 3c-1.5-2.1-9.8-6-9.8-6-.1-5.1 2.5-7 5.7-8.9 3.2-1.8 2.6-4.5 1.7-5.3-1-.7-1-1.8-1-1.8-.2-6.9-4-17.9-16.8-17.8-11.6 0-15.1 2.2-17.8 7-2.7 4.8-4.1 6.3-6.5 7.8-2.4 1.5-2.3 2.6-3.3 5.1-1 2.6 4.2 4.9 4.6 5.8.5.9-1.3 3.6-1.3 3.6l3.6 1.5 2.5 8.2L41 76.5l-8.4 7-8.5.7v14.9s11-1.9 11.7-1.9c1.1 0 4 1.6 5.5 2.1 1.7.5 4.9.2 7.4 1 2.6.6 2.6 6.7 2.6 6.7a80.3 80.3 0 0 1-8.5 19l2.2 1.8c8.6 6.8 27 29.6 56.6 4.6zm-72.3-41c-1.8.2.3.8-.4.6-.7-.3-.8-2.4-.8-2.4s-.4-1 .7-1.6c1.6-.1-1.3.4 1 0 2.3-.6 2.6-.2 2.3.5-.4.6-1.2.7-.3 1 .9.4-.8 1.6-2.5 1.8zm55-16.6c1 .5 2 1 1.3 1.2l-17.9 1.8s-1.2-.5 0-1c1.3-.6 6.1-3.3 7.6-2.9 1.5.4 3 1 4 1 1-.1 4-.6 5-.1zM72.1 47.2c.8-1.8 2.3-5.6 2.7-6 .3-.5 2 0 3.3.6 1.4.6 2.8.8 2.6 3-.3 2.2-1.5 6.2-2.9 5.6a18 18 0 0 0-4.4-1.5s-2-.3-1.3-1.7zm-18.8 1c.6-1.4 2.9-5.6 3.3-6 .4-.3 2.7-1.3 7-1.7 4.4-.5 6.7-.2 6.8 0 0 .2.3 0-1 2.7-1.3 2.8-1.6 4.7-2.7 4.6-1 0-3.7-.5-12.4 1.1 0 0-1.6.6-1-.7zM49 58.6s-4.7-2.8-.4-5.2a31.6 31.6 0 0 1 23.7-2.3c10.9 3 14 5.7 12.4 7.2-1.6 1.5-2.2-1.3-7.7-3.7a35.6 35.6 0 0 0-20.4-2.5c-6.7 1.7-7.6 3-7.2 4 .5 1 .8 2.6-.4 2.5zm2.9 4.7s-.9-.9.2-1.6c1.1-.8 4.6-2.9 5-3.4.5-.5-.3-1-1.2-1.4-1-.4-3.2-1.4-1-2 2.1-.5 8-1.8 10.3-.4 2.1 1.4.8 2.5-.5 4.5-1.3 2.1-2.4 2.6 0 2.6 2.3 0 2.4.5 3.8-1.5s4.5-3.3 6.5-1.8c1.9 1.3 1.7 3.6.7 4.5 0 0-1.8 1-1.7 2.5l.1 4.4c0 .8.2 1.5-2 1.4-2.1-.1-9.8 2-12.9 3.3-2.3.8-1.8.3-3.5-3.3-1.8-3.6-3.3-6.9-3.9-7.8zm2.5 51.4c-1.4 5-4.3 14.1-5.4 15.1-1.2 1-2-1.4-2-1.4.7-.7 3.5-8.8 5-12.8 1.6-4 2.1-7.6 3.2-7.6 1 0 .6 1.8-.8 6.7zM81 137.4c-2 .1-9.2.6-17.3-1.6-8-2.2-7.3-1.7-6.9-4.5l2.3-14.5s.2-4.4 1.8-2.7a29 29 0 0 0 12.2 7c6.8 2.3 6.3 1.2 6.5 3.6a67 67 0 0 0 2 9.3c.8 2.6 1.5 3.3-.6 3.4zm13-2.3s-2.5-6.8-2.5-8.8c0-2 2.4-1.3 2.6-.3l2 8c0 .5-.7 1.5-2.2 1.1zm8.7-25.8c.3 2.4 2 9-4.7 7-6.8-2.2-14.3-4-18.4-5.6-4-1.6-8.7-1.8 1.7 4 10.4 5.9 11.2 3.3 10.4 5.9-.9 2.6-6.7-.5-11.7-2.1s-16-3.9-22.2-15.2c-3.7-6.7-6-11.8-7.7-14-1.2-1.5-2.7-1.2-2.3.2.5 1.6 2.5 3.5-.4 3.7 0 0-11.5-2.4-12.3-5.5-.8-3.1 8.6-11 13-9.3 4.3 1.8 4.8 2.6 6.4 1.8 1.6-.8 4.7-.6 4.2 1.5s-3.2 5.3-2.6 6.8c.7 1.5 5 3.2 9.3 6.3 4.2 3.1 4.4 3.4 4.2 6.2-.2 2.7 5.8 2 9.7 2.3 4 .3 23 3.5 23.4 6zM91.2 95.9c2.3-3 4.8-6.6 5.6-6.4 0 0 2.6 5.6 1.4 14 0 0-17.6-3.5-20.3-3.5-2.6 0-4 0-2.2-3.6 1.9-3.6 4.6-8.7 6.6-9 2-.4 7.4-1.3 8.4-1.3 1.3-.1 1 .3-.5 3.1-2 3.5-1.4 9.7 1 6.7zm-16-5.9c-.7 1-3 4.9-3.7 4.8-.7 0-3-2-5.2-3.1-1.9-1-2.8-1.1-1.5-1.5 0 0 9.9-1.8 10.5-1.8.7 0 .5.6-.2 1.6zM114 78.1c-2 .2-47.8 6.3-50.4 6.8-2.6.6-.5-2.5-.5-2.5s.6-1.2 1.8-1.3c2.2-.3 49-5.7 50-5.7s1.3.3 1.4 1.3c0 1-.2 1.3-2.3 1.4zm12.2-26.9L137 57v35.6l-9.8 5.4v-4.8l4.4-2.7.1-31.1-5.5-3v-5.2zM113 78.8s.6 0 .3-1.3c-.2-1.2-3.8-2.2-2.4-2.4a74 74 0 0 1 12.8-.7c.5.6 1.3 2.9.2 3.6-1 .7-11 .8-11 .8z"/>
  <path fill="#F7E93E" d="M33.4 93c-1.1-1.2-1.7-3.8-1.4-4.4.3-.6 0-1-2.3-.5s1.4-.1-.2 0c-1.6.2-1.1 1.1-1.1 1.1s-.2 5.1.5 5.4c.7.2.4-.2 2.1-.5 1.8-.2 3.3-.7 2.4-1.1zm89.2-17c0-1-.4-1.3-1.4-1.3s-55 6.2-57.1 6.5c-1.3.1-1.9 1.3-1.9 1.3s-2 3 .6 2.5 55.5-7.4 57.6-7.6c2-.2 2.3-.4 2.2-1.4zM72.5 49c2 .4 3 .8 4.5 1.5 1.4.7 2.6-3.4 2.8-5.6.2-2.1-1.1-2.4-2.5-3-1.4-.7-3-1-3.4-.6l-2.7 6c-.7 1.4 1.3 1.7 1.3 1.7zm-19 0c8.6-1.6 11.3-1.1 12.4-1 1 0 1.3-2 2.7-4.7 1.3-2.8 1-2.5 1-2.7-.2-.2-2.4-.5-6.8 0-4.3.5-6.7 1.4-7 1.8-.5.3-2.8 4.6-3.3 5.9-.6 1.3 1 .7 1 .7zm30.4 9.4c1.6-1.4-1.6-4.1-12.4-7.1-11-3-19.4-.1-23.8 2.3-4.3 2.3.4 5.1.4 5.1 1.3 0 1-1.5.5-2.5s.4-2.3 7.2-4c6.7-1.6 15 .3 20.4 2.6 5.5 2.3 6 5 7.7 3.6zM54.9 107.9c-1.1 0-1.6 3.6-3.2 7.6-1.6 4-4.4 12-5 12.8 0 0 .8 2.4 2 1.4a79 79 0 0 0 5.4-15c1.4-5 1.8-6.8.8-6.8zm24.4 16.7c-.3-2.4.2-1.3-6.6-3.5a29 29 0 0 1-12.1-7.1c-1.7-1.7-1.9 2.7-1.9 2.7l-2.2 14.5c-.4 2.8-1.2 2.3 6.9 4.5 8 2.2 15.2 1.7 17.3 1.6 2-.2 1.4-.8.6-3.4-.8-2.6-1.7-6.9-2-9.3zm11.9 1.6c0 2 2.4 8.8 2.4 8.8 1.4.4 2.2-.7 2-1.2 0-.5-1.6-7-1.8-8-.3-.9-2.6-1.6-2.6.4zm-20-31.5c.7 0 3-3.8 3.6-4.8.6-1 .9-1.6.2-1.6S64.4 90 64.4 90c-1.2.4-.3.6 1.6 1.5 2.2 1 4.4 3 5.2 3.2zm-3.9-17s17-1.7 17.9-1.9c.8 0-.4-.7-1.3-1.2-1-.5-4 0-5 .1-1 0-2.5-.6-4-1-1.5-.3-6.4 2.4-7.6 3-1.2.5 0 1 0 1zm29.2 11.7c-.8-.2-3.3 3.4-5.7 6.4-2.3 3-3-3.2-1-6.7 1.6-2.8 1.8-3.2.5-3.1-1 0-6.3.9-8.3 1.2-2 .4-4.8 5.5-6.6 9.1-1.9 3.7-.5 3.6 2.2 3.6 2.6 0 20.2 3.5 20.2 3.5 1.2-8.4-1.3-14-1.3-14z"/>
  <path fill="#087EC1" d="M179 31h41.8c2.6-.2 3.8 1 3.6 3.6V42H242V33c0-3.7-.6-6.4-2-7.8-1.5-1.5-4.1-2.2-8-2h-20.8v-5.8h-18.9v5.7h-31.2V42H179V31.1zm24.6 61.6L218 102l.2.1H244l-26.5-18 18-11.2V55.4h6.3v-7.8h-42.5l4.2-9H184l-4.4 9h-18v7.8H176L169 70.3l20.8 13.5-29 18h27.6l15.2-9.2zm.6-18.4l-13-8.9 4.8-10h21.6v10.4l-13.4 8.5zm124.3 11.5h-14.2l-3.4 7.6h-5.5l-3.2-7.6h-14.9l2.9 7.6h-9v7.8h52.2v-7.8h-7.8l2.9-7.6zm5.5-44.2v-7l-7.3 3-2.3-5.9 8.3-3.2v-7.6l-10.8 4-2.3-5.6h-12.8l8.9 21.6h-16.5l5.1-12.2c2.7-5.7 1-8.4-5.3-8h-16.8v8h9.9l-2.7 7.3-6.9-2.5v8l4.3 1.4-5.7 15.4h5V83h43.2V57.7h5l-5-13.7 4.7-2.5zm-24 20.3c2.6-.3 3.8 1 3.6 3.5v9.4h-11.7v-13h8.1zm7.1-13.1v-4l3.4 9.3h-25.7l3.2-8.7v3.4H317zm-66.3 48.2h7.8l1-55.5h-7l-1.8 55.5zM281 27.4h-7.8v-9.8h-13v9.8h-9v8h9v66.3h13V35.4h7.8v-8zM275 42v35.3h5.5V42H275zm150.8 32v-7.7H405v-6.2h18.8V28.6c0-3.8-.6-6.4-2-7.8-1.5-1.5-4.1-2.2-8-2.1h-44.6v41.5H388v6.2h-20.6v7.8h20.6v28h17v-28h20.6zm-41-47.6h3.4v9h-3.4v-9zm20.4 0h.9c1.8-.1 2.6.7 2.5 2.5v6.7H405v-9.2zm-17 25.9h-3.4v-9h3.4v9zm20.4 0H405v-9h3.4v9zm-40.8 49.1h14.7l4-23.4h-14.1l-4.6 23.4zm43.6 0H426l-3.5-23.4h-15l3.8 23.4zm-66.9.9h22v-7.8h-4V49.2c0-3.8-.7-6.4-2.1-7.9-1.5-1.4-4.1-2.1-7.9-2h-10.8V47h.7c1.5-.1 2.2.6 2.1 2v53.3zm0-83.9v16.9h18V18.5h-18zm167.5 55v-19c0-3.8-.7-6.4-2.1-7.8-1.5-1.5-4-2.2-7.9-2.1h-64.7v28.9h28.4v6.2h-29.3v8h29.3V94h-32v7.8H515V94h-31.6v-6.4h29.3v-8h-29.3v-6.2H512zm-59.4-39h40.4c2.6-.3 3.8.9 3.5 3.5v3.6h17.4V31.4c.3-3.4-1.3-5-4.8-4.7h-1.6l3-8.6h-18l-3.4 8.5h-5.7V16.4h-17.7v10.3h-5.9l-2.3-8.4H439l2 8.4h-6v14.9h17.4v-7.1zm2.4 31.2V52.4h35.7c2.6-.3 3.8 1 3.5 3.5v9.8H455z"/>
  <path fill="#53B748" d="M195.3 115.9l-7.5 22.7H182l-3.8-14.5-3.8 14.5h-5.8l-7.7-22.7h5.8l4.9 15.3 3.8-15.3h5.4l4 15.3 4.7-15.3h5.8zm35.4 0l-7.6 22.7h-5.8l-3.7-14.5-3.8 14.5H204l-7.8-22.7h5.8l5 15.3 3.8-15.3h5.3l4 15.3 4.8-15.3h5.8zm35.4 0l-7.6 22.7h-5.8L249 124l-3.9 14.6h-5.8l-7.7-22.7h5.8l5 15.3 3.8-15.3h5.3l4 15.3 4.8-15.3h5.8zm1.8 22.4v-6h6.4v6h-6.4zm26.1-2.8v-7.9h-5.6c-4.4 0-6.5 1.5-6.4 4.3-.1 2.4 1.8 3.6 5.8 3.6h6.2zm-5.3-11.8h5.3c.1-3.2-1.6-4.8-5.3-4.7-3.5-.1-5.6 1.2-6.4 4h-4.8c1.4-5.2 5.1-7.8 11.2-7.7 6.3 0 9.5 2.7 9.5 8.2v15.7h-10.6c-6.7 0-10-2.3-10-7 0-5.6 3.8-8.4 11-8.4zm14.7 15v-23.3h12.3c6.6 0 9.8 2.9 9.7 9v14.2h-6.1v-14.1c0-3.5-1.7-5.2-5.2-5.2h-4.6v19.3h-6.1zm38.5-3.2c4 0 6-2.7 6-8-.2-5.4-2.1-8.1-6-8.2-3.8 0-5.7 2.8-5.8 8.2 0 5.1 2 7.8 5.8 8zm0 3.7c-7.6-.4-11.6-4.3-12-11.7.2-7.9 4.3-12 12.1-12.2 7.8.3 11.8 4.3 12 12-.1 7.6-4.2 11.6-12.1 11.9zm28-3.7c3.9 0 5.9-2.7 5.9-8-.1-5.4-2.1-8.1-6-8.2-3.7 0-5.7 2.8-5.8 8.2.1 5.1 2 7.8 5.8 8zm0 3.7c-7.7-.4-11.7-4.3-12.1-11.7.3-7.9 4.3-12 12.2-12.2 7.7.3 11.7 4.3 12 12-.2 7.6-4.2 11.6-12.2 11.9zm39.8-15.9h-6.1c-1-2.7-2.8-4-5.7-4-3.8.2-5.8 3-6 8.2.2 5.3 2.8 8 8 8.1 3 0 6.3-1.7 9.8-5.3v4.6c-2.7 3-6.5 4.5-11.5 4.5-7.9-.4-12-4.4-12.4-12 0-7.8 4.1-11.8 12.1-12.1 6.3 0 10.2 2.8 11.8 8zm3 15v-6h6.5v6h-6.4zm33.8-15h-6c-1-2.7-2.8-4-5.7-4-3.9.2-5.9 3-6 8.2.1 5.3 2.8 8 8 8.1 3 0 6.3-1.7 9.7-5.3v4.6c-2.6 3-6.5 4.5-11.4 4.5-8-.4-12.1-4.4-12.5-12 .1-7.8 4.2-11.8 12.2-12.1 6.2 0 10.1 2.8 11.7 8zm15.8 12.2c4 0 6-2.7 6-8-.2-5.4-2.2-8.1-6-8.2-3.8 0-5.7 2.8-5.8 8.2 0 5.1 2 7.8 5.8 8zm0 3.7c-7.7-.4-11.7-4.3-12-11.7.2-7.9 4.3-12 12.1-12.2 7.7.3 11.8 4.3 12 12-.1 7.6-4.2 11.6-12.1 11.9zm16.8-.6v-23.2h26.7c6.2 0 9.2 2.6 9 8v15.2h-6V124c0-3-1.6-4.6-5-4.6H500v19.3h-6v-15c0-2.9-1.6-4.3-4.5-4.3h-4.3v19.3H479z"/>
  <path fill="#087EC1" d="M13.2 38v12.8L78 13.3V.1z"/>
  <path fill="#53B748" d="M142.9 38v12.8L78 13.3V.1z"/>
  <path fill="#087EC1" d="M142.9 112.2v-11.7L78.2 138v12.1z"/>
  <path fill="#53B748" d="M13.2 112.2v-11.7l65 37.5v12.1z"/>
  <path fill="#087EC1" d="M22.1 99.2l-8.9-4.8V57.5l8.9-4.8zM110.5 73L124 44.9l1.3 24.4-9.5 4.5zM111.3 80.6l12.1 25.7 1.9-4.2-2.5-21.5z"/>
</svg>
